<?xml version="1.0" standalone="no"?>
<!DOCTYPE svg PUBLIC "-//W3C//DTD SVG 1.1//EN" "http://www.w3.org/Graphics/SVG/1.1/DTD/svg11.dtd" >
<!--
2013-9-30: Created.
-->
<svg>
<metadata>
Created by iconfont
</metadata>
<defs>

<font id="fontFamily" horiz-adv-x="1024" >
  <font-face
    font-family="fontFamily"
    font-weight="500"
    font-stretch="normal"
    units-per-em="1024"
    ascent="896"
    descent="-128"
  />
    <missing-glyph />
    
    <glyph glyph-name="yesread" unicode="&#58881;" d="M511.999488 837.81481L62.771151 557.0584739999999c0-64.047712 0-50.284243 0-112.302739l0-393.059074c0-62.018495 50.286304-112.301715 112.30734-112.301715l673.843018 0c62.021037 0 112.306317 50.28322 112.306317 112.301715L961.227826 444.756759c0 62.018495 0 50.886971 0 112.302739L511.999488 837.81481zM118.925333 51.69768499999998L118.925333 462.30339l254.52817-174.97922L121.585014 35.466002C120.022362 40.621418999999946 118.925333 45.994800000000055 118.925333 51.69768499999998zM848.921509-4.4531729999999925L175.078491-4.4531729999999925c-4.305226 0-8.444669 0.576121-12.475637 1.479701l257.927732 257.944793 91.468902-62.896492 91.468902 62.896492 257.927732-257.944793C857.366178-3.878074999999967 853.225711-4.4531729999999925 848.921509-4.4531729999999925zM905.074667 51.69768499999998c0-5.702885-1.096006-11.076266-2.659682-16.23066L650.546498 287.32417l254.52817 174.97922L905.074667 51.69768499999998zM511.999488 257.877511L118.925333 528.983045l392.526665 243.399519 393.62267-243.399519L511.999488 257.877511z"  horiz-adv-x="1024" />

    
    <glyph glyph-name="noread" unicode="&#58882;" d="M890.256587 697.669956c-9.406616 4.568039-21.888393 7.721869-38.638555 7.721869L170.276942 705.391824c-16.749139 0-29.229893-3.154853-38.637532-7.721869-38.692793-15.714913-66.18197-54.079686-66.18197-98.996688l0-426.930509c0-44.617174 27.080861-82.818217 65.365338-98.724489 9.326795-4.675486 21.970261-7.995091 39.454164-7.995091l681.34109 0c17.484926 0 30.127369 3.318582 39.454164 7.995091 38.25787 15.906272 65.367385 54.107315 65.367385 98.724489L956.43958 598.674291C956.43958 643.59027 928.948356 681.955042 890.256587 697.669956zM904.015502 598.674291l0-426.930509c0-6.90527-1.38766-13.486152-3.752618-19.549242-3.371932 3.997034-7.206418 8.074909-11.936333 12.290931L670.393311 358.672148l225.03016 243.454778c2.745643 2.963495 4.920258 5.819542 7.095896 8.673543C903.445497 606.911906 904.015502 602.860636 904.015502 598.674291zM851.618031 652.019243c4.81383 0 9.381032-0.870834 13.813153-2.121314-1.277138-2.582825-3.669726-6.360871-8.156085-11.174504L545.751556 301.68320300000005c-18.652566-20.174482-50.95455-20.174482-69.60814 0L164.62192 638.723426c-4.486358 4.813632-6.878946 8.591679-8.157108 11.174504 4.432121 1.251503 9.000347 2.121314 13.813153 2.121314L851.618031 652.019243zM121.633112 152.195563c-2.365981 6.063089-3.752618 12.642948-3.752618 19.549242L117.880494 598.674291c0 4.186346 0.571028 8.238638 1.468505 12.126178 2.201222-2.855024 4.350253-5.710049 7.123526-8.673543l225.029136-243.454778-217.932217-194.186677C128.838506 160.269449 125.005044 156.19259699999998 121.633112 152.195563zM170.276942 118.39882999999998c-2.556324 0-5.029756 0.379647-7.477605 0.760317 1.413244 1.52268 3.099721 3.235694 5.274336 5.194302l219.374115 195.436134 50.547257-54.677297c19.333093-20.909216 45.244267-32.43676 72.952441-32.43676 27.707151 0 53.619348 11.528568 72.952441 32.43676l50.548281 54.677297 219.346484-195.436134c2.201222-1.958608 3.8877-3.671623 5.301967-5.194302-2.473432-0.38067-4.920258-0.760317-7.478628-0.760317L170.276942 118.39882999999998z"  horiz-adv-x="1024" />

    
    <glyph glyph-name="qiye" unicode="&#58986;" d="M224.32142832 640.33928584l128.57142832 0 0-96.42857168-128.57142832 0 1e-8 96.42857168ZM417.17857168 640.33928584l128.57142832 0 0-96.42857168-128.57142832 0 0 96.42857168ZM224.32142832 479.625l128.57142832 0 0-96.42857168-128.57142832 0 1e-8 96.42857168ZM417.17857168 479.625l128.57142832 0 0-96.42857168-128.57142832 0 0 96.42857168ZM738.60714248 479.625l64.28571416 0 0-96.42857168-64.28571416 0 0 96.42857168ZM738.60714248 318.91071416l64.28571416 0 0-96.42857168-64.28571416 0 0 96.42857168ZM224.32142832 318.91071416l128.57142832 0 0-96.42857168-128.57142832 0 1e-8 96.42857168ZM417.17857168 318.91071416l128.57142832 0 0-96.42857168-128.57142832 0 0 96.42857168ZM931.46428584 29.625l0 578.57142832-257.14285752 0 0 192.85714248-578.57142832 0 0-771.42857168-32.14285752 0 0-64.28571415 900 0 0 64.28571415L931.46428584 29.625zM160.03571416 29.625l0 707.14285752 450 0 0-707.14285752L160.03571416 29.625zM674.32142832 29.625l0 514.28571416 192.85714248 0 0-514.28571416L674.32142832 29.625z"  horiz-adv-x="1026" />

    
    <glyph glyph-name="rizhi" unicode="&#58978;" d="M905.75 721.5L230.75 721.5l0-787.5 455.625 0 0 0L905.75-66 905.75 721.5 905.75 721.5 905.75 721.5zM793.25 834L118.25 834l0-787.5 56.25 0L174.5 777.75l618.75 0L793.25 834 793.25 834zM343.25 609l393.75 0 0-112.5L343.25 496.5 343.25 609 343.25 609 343.25 609zM343.25 384l393.75 0 0-112.5L343.25 271.5 343.25 384 343.25 384 343.25 384zM343.25 159l393.75 0 0-112.5L343.25 46.5 343.25 159 343.25 159 343.25 159z"  horiz-adv-x="1024" />

    
    <glyph glyph-name="exchange" unicode="&#59044;" d="M859.77770667 656.039936L701.61749333 497.89064533l95.31118934-41.33137066c3.18941867-1.38717867 5.06811733-4.74043733 4.58752-8.18107734-0.46967467-3.44064-3.211264-6.14946133-6.66282667-6.59729066l-237.38231467-31.04221867c-2.38114133-0.30583467-4.784128 0.51336533-6.47714133 2.20637867s-2.51221333 4.08507733-2.20637867 6.47714133l31.031296 237.38231467c0.21845333 1.736704 1.015808 3.29864533 2.195456 4.46737066 1.15780267 1.15780267 2.686976 1.95515733 4.40183467 2.195456 3.44064 0.48059733 6.79389867-1.39810133 8.17015467-4.58752l41.33137066-95.31118933 158.16021334 158.16021333c3.02557867 3.014656 7.91893333 3.00373333 10.944512-0.01092266l54.755328-54.74440534C862.80328533 663.969792 862.80328533 659.07643733 859.77770667 656.039936zM471.57521067 352.24780799999996l-237.38231467-31.031296c-3.45156267-0.44782933-6.18222933-3.15665067-6.66282667-6.59729067-0.48059733-3.44064 1.38717867-6.79389867 4.58752-8.18107733l95.31118934-41.33137067-158.16021334-158.14929066c-3.02557867-3.02557867-3.02557867-7.929856 0-10.95543467l54.755328-54.74440533c3.02557867-3.02557867 7.91893333-3.03650133 10.944512-0.01092267l158.16021334 158.16021333 41.33137066-95.31118933c1.376256-3.18941867 4.72951467-5.05719467 8.17015467-4.57659733 1.72578133 0.24029867 3.244032 1.02673067 4.40183467 2.18453333 1.179648 1.16872533 1.97700267 2.73066667 2.195456 4.47829333l31.031296 237.38231467c0.30583467 2.392064-0.51336533 4.784128-2.20637867 6.47714133S473.956352 352.56456533000005 471.57521067 352.24780799999996zM691.57956267 260.09326933l95.31118933 41.33137067c3.18941867 1.376256 5.05719467 4.72951467 4.57659733 8.159232-0.24029867 1.72578133-1.02673067 3.25495467-2.195456 4.40183467-1.16872533 1.179648-2.73066667 1.98792533-4.46737066 2.195456l-237.38231467 31.04221866c-2.392064 0.30583467-4.784128-0.51336533-6.47714133-2.20637866-1.69301333-1.69301333-2.51221333-4.096-2.195456-6.47714134l31.031296-237.38231466c0.44782933-3.45156267 3.15665067-6.18222933 6.59729066-6.66282667 3.44064-0.48059733 6.79389867 1.39810133 8.18107734 4.58752l41.33137066 95.31118933 158.14929067-158.14929066c3.02557867-3.02557867 7.929856-3.02557867 10.95543467 0l54.74440533 54.755328c3.02557867 3.02557867 3.03650133 7.929856 0.01092267 10.944512L691.57956267 260.09326933zM327.39601067 502.90414933l-95.31118934-41.33137066c-3.18941867-1.376256-5.05719467-4.72951467-4.57659733-8.159232 0.24029867-1.72578133 1.02673067-3.244032 2.18453333-4.40183467 1.179648-1.179648 2.73066667-1.98792533 4.47829334-2.195456l237.38231466-31.04221867c2.392064-0.30583467 4.784128 0.51336533 6.47714134 2.20637867s2.51221333 4.096 2.20637866 6.47714133l-31.031296 237.38231467c-0.44782933 3.45156267-3.15665067 6.18222933-6.59729066 6.66282667-3.44064 0.48059733-6.79389867-1.39810133-8.18107734-4.58752l-41.33137066-95.31118934L234.94656 726.76420267c-3.02557867 3.02557867-7.929856 3.02557867-10.95543467 0l-54.74440533-54.755328c-3.02557867-3.02557867-3.02557867-7.929856 0-10.944512L327.39601067 502.90414933z"  horiz-adv-x="1024" />

    
    <glyph glyph-name="check" unicode="&#59192;" d="M512 810.666667C277.333333 810.666667 85.333333 618.666667 85.333333 384s192-426.666667 426.666667-426.666667c234.666667 0 426.666667 192 426.666667 426.666667S746.666667 810.666667 512 810.666667zM512 42.66666699999996c-187.733333 0-341.333333 153.6-341.333333 341.333333s153.6 341.333333 341.333333 341.333333c187.733333 0 341.333333-153.6 341.333333-341.333333S699.733333 42.66666699999996 512 42.66666699999996z"  horiz-adv-x="1024" />

    
    <glyph glyph-name="mulu" unicode="&#58903;" d="M1020.544295 60.36713499999996c0-15.013949-12.199856-27.190269-27.214828-27.190269L27.201525 33.17686600000002c-15.013949 0-27.202549 12.17632-27.202549 27.190269l0 0c0 15.037485 12.1886 27.239388 27.202549 27.239388l966.128965 0C1008.344438 87.60652300000004 1020.544295 75.40462000000002 1020.544295 60.36713499999996L1020.544295 60.36713499999996zM1020.544295 629.0593220000001c0 15.038508-12.199856 27.214828-27.214828 27.214828L27.201525 656.27415c-15.013949 0-27.202549-12.17632-27.202549-27.214828l0 0c0-15.038508 12.1886-27.214828 27.202549-27.214828l966.128965 0C1008.344438 601.844493 1020.544295 614.020814 1020.544295 629.0593220000001L1020.544295 629.0593220000001zM1020.544295 344.71322799999996c0-15.038508-12.199856-27.215852-27.214828-27.215852L27.201525 317.49737700000003c-15.013949 0-27.202549 12.17632-27.202549 27.215852l0 0c0 15.013949 12.1886 27.214828 27.202549 27.214828l966.128965 0C1008.344438 371.92805699999997 1020.544295 359.727177 1020.544295 344.71322799999996L1020.544295 344.71322799999996z"  horiz-adv-x="1037" />

    
    <glyph glyph-name="up" unicode="&#59191;" d="M445.155 616.9929999999999v-645.749c0-19.241 15.436-34.839 35.136-34.839h68.976c19.405 0 35.136 15.579 35.136 34.839v656.499l206.75-203.214c6.875-6.859 18.191-6.685 25.279 0.399l48.781 48.782c7.086 7.086 7.278 18.402 0.4 25.262l-277.982 273.247c-0.976 2.13-2.348 4.137-4.111 5.902l-53.198 53.216c-4.188 4.188-9.724 6.164-15.116 5.902-4.957 0.251-10.07-1.559-13.931-5.41l-38.706-38.731-298.166-286.89c-7.517-7.499-7.308-19.838 0.423-27.567l53.198-53.216c7.751-7.732 20.085-7.924 27.567-0.422l199.555 191.993z"  horiz-adv-x="1024" />

    
    <glyph glyph-name="down" unicode="&#59193;" d="M584.407 156.67399999999998v645.749c0 19.241-15.436 34.839-35.141 34.839h-68.976c-19.405 0-35.136-15.579-35.136-34.839v-656.499l-206.751 203.214c-6.877 6.859-18.191 6.685-25.279-0.399l-48.781-48.782c-7.086-7.086-7.278-18.402-0.4-25.262l277.984-273.247c0.976-2.13 2.348-4.137 4.111-5.902l53.198-53.216c4.188-4.188 9.724-6.164 15.116-5.902 4.964-0.251 10.07 1.559 13.931 5.41l38.706 38.731 298.166 286.89c7.517 7.499 7.308 19.838-0.423 27.567l-53.198 53.216c-7.751 7.732-20.085 7.924-27.567 0.422l-199.555-191.993z"  horiz-adv-x="1024" />

    
    <glyph glyph-name="forbidden" unicode="&#58886;" d="M509.270842 833.402313c-248.668523 0-450.254727-199.753463-450.254727-446.161503s201.586205-446.161503 450.254727-446.161503 450.254727 199.753463 450.254727 446.161503S757.939365 833.402313 509.270842 833.402313zM509.270842 684.682153c55.664787 0 107.779725-15.033391 152.467507-41.199331l-411.0621-407.326009c-26.40437 44.281529-41.574884 95.922676-41.574884 151.083997C209.100342 551.510108 343.487052 684.682153 509.270842 684.682153zM509.270842 89.79946800000005c-55.666834 0-107.781772 15.032368-152.469554 41.197284l411.0621 407.326009c26.406416-44.281529 41.576931-95.922676 41.576931-151.08195C809.440319 222.96434999999997 675.046447 89.79946800000005 509.270842 89.79946800000005z"  horiz-adv-x="1024" />

    
    <glyph glyph-name="yonghu" unicode="&#58947;" d="M512.00944385-64.31454257999997c-248.14625713 0-449.31466494 201.09285879-449.31466494 449.1527748C62.69477891 632.90714121 263.86318672 834 512.00944385 834c248.12647031 0 449.29577724-201.09285879 449.29577724-449.16176865C961.30432197 136.77651708999997 760.13501416-64.31454257999997 512.00944385-64.31454257999997zM512.00944385 749.77750254c-201.60820987 0-365.07238066-163.37513144-365.07238067-364.94017032 0-94.24260352 36.05385586-179.87264648 94.74806075-244.63413808 52.8580626 25.56966357 33.45371807 4.29278906 102.63211523 32.76118828 70.78650644 29.08268174 87.54844219 39.23409902 87.54844219 39.23409902l0.68263682 67.05583594c0 0-26.51582197 20.11845937-34.75513565 83.21787861-16.60724033-4.76946651-22.0683375 19.32609727-23.06036513 34.6544042-0.88050323 14.82105146-9.60368906 61.07309209 10.63978593 56.89992218-4.14349102 30.88865742-7.11417656 58.74996709-5.64007588 73.5062625 5.06536612 51.80127891 55.34757422 105.92478281 132.80755605 109.87850214 91.11182607-3.94292636 127.21065117-58.03315313 132.27601729-109.83533203 1.47679893-14.76618838-1.78259151-42.6373919-5.92338427-73.47208623 20.2371794 4.11920684 11.45103662-42.0653795 10.4599081-56.88823008-0.9038874-15.32830781-6.49899404-39.33662959-23.03518183-34.57795606-8.28068555-63.09762012-34.79920576-83.05508848-34.79920577-83.05508847l0.63766758-66.73025654c0 0 16.76103574-9.4822708 87.54754307-38.57754463 69.17749805-28.4657001 49.75066934-8.44617393 102.63481348-34.07159971 58.66902246 64.76329072 94.72197832 150.38254073 94.72197831 244.63413809C877.05933945 586.40147197 713.61945195 749.77750254 512.00944385 749.77750254z"  horiz-adv-x="1024" />

    
    <glyph glyph-name="dailishang" unicode="&#59017;" d="M888.32 99.45600000000002c-6.272 2.432-11.008 3.968-14.208 4.736-1.536-16.512-3.584-29.568-5.888-39.04-1.536-14.208-5.504-20.864-11.776-20.096-5.504-1.536-11.008 4.352-16.512 17.792-8.704 15.744-14.976 43.776-18.944 83.968l92.288 10.624-4.736 47.36-91.008-10.624c-0.768 11.008-1.536 25.984-2.432 44.928-1.536 17.28-2.432 30.336-2.432 39.04L764.16 278.144c0.768-25.984 2.688-55.936 5.888-89.856l-53.248-5.888 5.888-48.512 50.816 5.888c4.736-49.664 13.056-84.352 24.832-104.064 14.208-25.984 34.688-39.04 61.44-39.04 24.448-0.768 40.192 13.824 47.232 43.776 2.432 15.744 4.736 28.8 7.04 39.04 0.768 4.736 1.536 8.32 2.432 10.624C911.232 91.51999999999998 901.76 94.72000000000003 888.32 99.45600000000002zM867.072 203.51999999999998l33.152 33.152c-14.976 13.44-30.72 25.984-47.36 37.888l-30.72-29.568C842.624 227.58399999999995 857.6 213.76 867.072 203.51999999999998zM686.08 278.01599999999996c-14.208-48.128-33.92-89.856-59.136-125.312 0.768-6.272 2.432-15.744 4.736-28.416 1.536-14.976 3.2-25.984 4.736-33.152 9.472 11.776 18.56 23.68 27.136 35.456l0-128.896 47.36 0L710.912 204.67200000000003c8.704 18.944 16.512 38.272 23.68 57.984L686.08 278.01599999999996zM469.632 466.304m-60.928 0a47.6 47.6 0 1 1 121.856 0 47.6 47.6 0 1 1-121.856 0ZM775.296 357.12c22.016 0 43.392-3.328 63.488-9.472L838.784 656.384c0 51.712-41.856 93.568-93.568 93.568l-462.08 0c-51.712 0-93.568-41.856-93.568-93.568l0-545.152c0-51.712 41.856-93.568 93.568-93.568l303.616 0 3.2 4.096c-21.248 33.792-33.664 73.6-33.664 116.352C556.16 259.072 654.208 357.12 775.296 357.12zM497.152 300.928l-52.864 0c-26.112 93.824-105.6 59.392-105.6 59.392l-28.032 45.952c72.064 68.352 0 118.656 0 118.656 0 0 0.896 1.408 27.52 45.824 92.032-25.6 106.496 60.928 106.496 60.928l52.224 0c16.768-86.4 106.88-61.056 106.88-61.056s-0.384-0.768 25.728-44.288c-67.968-62.464-0.384-120.832-0.384-120.832s-0.384-0.384-25.856-43.904C513.664 387.072 497.152 300.928 497.152 300.928z"  horiz-adv-x="1024" />

    
    <glyph glyph-name="sanjiao" unicode="&#58929;" d="M497.08824452 634.64776394L855.58245438 635.7410280199999 1215.9521767 632.55862415C1237.85829401 632.55862415 1257.11502776 631.37320762 1263.5133441 626.47446438 1278.96145244 614.64752732 1277.27338627 590.49100305 1263.5133441 576.7916953700001L882.07734796 159.12614922C874.80672387 151.82410914000002 865.10243716 148.70244320999996 855.55313295 149.17158277 846.00173416 148.70139591999998 836.32781569 151.82410914000002 829.02577559 159.12614922L447.59082769 576.79064711C433.86219811 590.48995627 432.36367275 614.4255227 447.59082769 626.44095431 454.67505132 632.02770037 467.00463801 634.64776394 497.08824452 634.64776394L497.08824452 634.64776394Z"  horiz-adv-x="1707" />

    
    <glyph glyph-name="yuan" unicode="&#58967;" d="M512 384m-512 0a100 100 0 1 0 1024 0 100 100 0 1 0-1024 0Z"  horiz-adv-x="1024" />

    
    <glyph glyph-name="jiekou" unicode="&#58931;" d="M864 640.896H730.148v60.556c0 17.673-14.327 32-32 32h-21.861v31.669c0 17.673-14.327 32-32 32H381.713c-17.673 0-32-14.327-32-32v-31.669h-21.861c-17.673 0-32-14.327-32-32v-60.556H160c-17.673 0-32-14.327-32-32v-518.727c0-17.673 14.327-32 32-32h704c17.673 0 32 14.327 32 32V608.896c0 17.673-14.327 32-32 32z m-32-518.727H192V576.896h135.852c17.673 0 32 14.327 32 32v60.556h21.861c17.673 0 32 14.327 32 32v31.669h198.574v-31.669c0-17.673 14.327-32 32-32h21.861v-60.556c0-17.673 14.327-32 32-32H832v-454.727zM256.552 480.856v-255.822c0-17.673 14.327-32 32-32h447.97c17.673 0 32 14.327 32 32V480.856c0 17.673-14.327 32-32 32h-447.97c-17.673 0-32-14.326-32-32z m64-32h383.97v-191.822H663.09V312.55999999999995c0 17.673-14.327 32-32 32s-32-14.327-32-32v-55.525h-53.261V312.55999999999995c0 17.673-14.327 32-32 32s-32-14.327-32-32v-55.525h-50.455V312.55999999999995c0 17.673-14.327 32-32 32s-32-14.327-32-32v-55.525h-46.822V448.856z"  horiz-adv-x="1024" />

    
    <glyph glyph-name="wave" unicode="&#58921;" d="M863 258h-135L620 474l-84-306-57 615-72 6-144-531H32v-75h291l102 384L482-45l72-6L638 264l42-81h309l3 75h-129z"  horiz-adv-x="1024" />

    
    <glyph glyph-name="bell" unicode="&#59584;" d="M512 684l48.8-12c101.6-24.8 176-117.6 176-220.8v-254.4l18.4-18.4 24.8-25.6h-536l24.8 25.6 18.4 18.4V451.2c0 103.2 73.6 196.8 176 220.8l48.8 12M512 832c-36.8 0-64-30.4-64-68v-30.4C320.8 704 223.2 588.8 223.2 451.2v-228.8L136 132.79999999999995v-44.8h752v44.8l-87.2 89.6V451.2c0 137.6-97.6 252.8-224.8 283.2v28.8c0 32-17.6 60.8-48 67.2-5.6 1.6-11.2 1.6-16 1.6z m88-808H424c0-49.6 38.4-88 88-88s88 38.4 88 88z"  horiz-adv-x="1024" />

    
    <glyph glyph-name="fuwuqi" unicode="&#58914;" d="M186.182 290.90999999999997h651.636V477.09H186.182v-186.18z m0-46.546v-162.91a23.273 23.273 0 0 1 23.273-23.272h605.09a23.273 23.273 0 0 1 23.273 23.273V244.36400000000003H186.182z m0 279.272h651.636v162.91a23.273 23.273 0 0 1-23.273 23.272h-605.09a23.273 23.273 0 0 1-23.273-23.273v-162.909z m651.636 232.728a46.545 46.545 0 0 0 46.546-46.546v-651.636a46.545 46.545 0 0 0-46.546-46.546H186.182a46.545 46.545 0 0 0-46.546 46.546V709.818a46.545 46.545 0 0 0 46.546 46.546h651.636z m-558.545-162.91a23.273 23.273 0 1 0 0 46.546 23.273 23.273 0 0 0 0-46.545z m69.818 0a23.273 23.273 0 1 0 0 46.546 23.273 23.273 0 0 0 0-46.545z m69.818 0a23.273 23.273 0 1 0 0 46.546 23.273 23.273 0 0 0 0-46.545zM558.545 640h186.182a23.273 23.273 0 0 0 0-46.545H558.545a23.273 23.273 0 0 0 0 46.545zM279.273 360.727a23.273 23.273 0 1 0 0 46.546 23.273 23.273 0 0 0 0-46.546z m69.818 0a23.273 23.273 0 1 0 0 46.546 23.273 23.273 0 0 0 0-46.546z m69.818 0a23.273 23.273 0 1 0 0 46.546 23.273 23.273 0 0 0 0-46.546z m139.636 46.546h186.182a23.273 23.273 0 0 0 0-46.546H558.545a23.273 23.273 0 0 0 0 46.546zM279.273 128a23.273 23.273 0 1 0 0 46.545 23.273 23.273 0 0 0 0-46.545z m69.818 0a23.273 23.273 0 1 0 0 46.545 23.273 23.273 0 0 0 0-46.545z m69.818 0a23.273 23.273 0 1 0 0 46.545 23.273 23.273 0 0 0 0-46.545z m139.636 46.545h186.182a23.273 23.273 0 0 0 0-46.545H558.545a23.273 23.273 0 0 0 0 46.545z"  horiz-adv-x="1024" />

    
    <glyph glyph-name="fuwuqi2" unicode="&#58880;" d="M186.182 290.90999999999997h651.636V477.09H186.182v-186.18z m0-46.546v-162.91a23.273 23.273 0 0 1 23.273-23.272h605.09a23.273 23.273 0 0 1 23.273 23.273V244.36400000000003H186.182z m0 279.272h651.636v162.91a23.273 23.273 0 0 1-23.273 23.272h-605.09a23.273 23.273 0 0 1-23.273-23.273v-162.909z m651.636 232.728a46.545 46.545 0 0 0 46.546-46.546v-651.636a46.545 46.545 0 0 0-46.546-46.546H186.182a46.545 46.545 0 0 0-46.546 46.546V709.818a46.545 46.545 0 0 0 46.546 46.546h651.636z m-558.545-162.91a23.273 23.273 0 1 0 0 46.546 23.273 23.273 0 0 0 0-46.545z m69.818 0a23.273 23.273 0 1 0 0 46.546 23.273 23.273 0 0 0 0-46.545z m69.818 0a23.273 23.273 0 1 0 0 46.546 23.273 23.273 0 0 0 0-46.545zM558.545 640h186.182a23.273 23.273 0 0 0 0-46.545H558.545a23.273 23.273 0 0 0 0 46.545zM279.273 360.727a23.273 23.273 0 1 0 0 46.546 23.273 23.273 0 0 0 0-46.546z m69.818 0a23.273 23.273 0 1 0 0 46.546 23.273 23.273 0 0 0 0-46.546z m69.818 0a23.273 23.273 0 1 0 0 46.546 23.273 23.273 0 0 0 0-46.546z m139.636 46.546h186.182a23.273 23.273 0 0 0 0-46.546H558.545a23.273 23.273 0 0 0 0 46.546zM279.273 128a23.273 23.273 0 1 0 0 46.545 23.273 23.273 0 0 0 0-46.545z m69.818 0a23.273 23.273 0 1 0 0 46.545 23.273 23.273 0 0 0 0-46.545z m69.818 0a23.273 23.273 0 1 0 0 46.545 23.273 23.273 0 0 0 0-46.545z m139.636 46.545h186.182a23.273 23.273 0 0 0 0-46.545H558.545a23.273 23.273 0 0 0 0 46.545z"  horiz-adv-x="1024" />

    
    <glyph glyph-name="chilunzu" unicode="&#59104;" d="M645.3 422v-77.1c0-2.8-1-5.6-2.9-8.1s-4.2-4.2-6.7-4.3l-64.6-10c-3.1-9.7-7.5-20.3-13.3-31.7 9.5-13.3 21.9-29.2 37.5-47.9 1.9-3.1 2.9-5.8 2.9-8.3 0-3.3-1-5.9-2.9-7.8-6.4-8.3-17.9-20.8-34.4-37.3-16.6-16.6-27.5-24.8-32.6-24.8-3.1 0-5.9 1-8.8 2.9L471.6 205c-10.2-5.3-20.9-9.6-32.1-12.8-3.1-30-6.2-51.5-9.6-64.6-1.9-6.7-6.1-10-12.5-10H340c-3.1 0-5.8 1.1-8.3 3.2-2.5 2.1-3.9 4.4-4.2 7.3l-9.6 63.7c-9.5 2.8-19.9 7.1-31.3 12.8l-49.3-37.1c-1.9-1.9-4.7-2.9-8.3-2.9-3.1 0-5.9 1.1-8.8 3.3-40 37-60 59.1-60 66.7 0 2.5 1 5.2 2.9 7.8 2.8 3.9 8.5 11.2 17.1 22.1 8.6 10.8 15.2 19.2 19.5 25.5-6.4 12.2-11.2 23.5-14.5 34.2l-63.3 10c-2.8 0.3-5.2 1.5-7.1 4-1.9 2.4-2.9 5.1-2.9 8.1v77.1c0 2.8 1 5.6 2.9 8.1 1.9 2.6 4.2 4.2 6.7 4.3l64.6 10c3.1 9.7 7.5 20.3 13.3 31.7-9.5 13.3-21.9 29.2-37.5 47.9-1.9 3.1-2.9 5.8-2.9 8.3 0 3.3 1 6.1 2.9 8.3 6.1 8.3 17.5 20.8 34.2 37.1s27.6 24.6 32.9 24.6c3.1 0 5.9-1 8.8-2.9l47.9-37.5c9.5 5 20.2 9.5 32.1 13.3 3.1 30 6.2 51.3 9.6 64.1 1.9 6.7 6.1 10 12.5 10h77.5c3.1 0 5.8-1.1 8.3-3.2 2.5-2.1 3.9-4.5 4.2-7.3l9.6-63.7c9.5-2.8 19.9-7.1 31.3-12.8l49.2 37.1c2.2 1.9 5 2.9 8.3 2.9 3.1 0 5.9-1.1 8.8-3.3 40-37 60-59.1 60-66.7 0-2.2-1-4.8-2.9-7.8-3.3-4.4-9.2-12-17.5-22.5s-14.5-18.9-18.8-25c6.4-13.3 11.1-24.7 14.2-34.2l63.3-9.6c2.8-0.6 5.2-2 7.1-4.3 1.7-2.5 2.8-5.2 2.8-8.3zM454 308.7c20.9 20.9 31.3 45.9 31.3 75.5s-10.5 54.5-31.3 75.5c-20.9 20.9-45.9 31.3-75.5 31.3S324 480.6 303 459.7c-20.9-20.9-31.3-45.9-31.3-75.5s10.4-54.5 31.3-75.5c20.9-20.9 45.9-31.3 75.5-31.3s54.7 10.5 75.5 31.3z m458 317.9v-58.4c0-4.4-20.8-8.8-62.1-12.8-3.3-7.5-7.5-14.7-12.5-21.6 14.2-31.4 21.1-50.6 21.1-57.5 0-1.1-0.6-2.1-1.6-2.9-34-19.7-51-29.6-51.7-29.6-2.2 0-8.6 6.5-19.1 19.5-10.5 13-17.8 22.5-21.6 28.3-5.6-0.6-9.7-0.9-12.5-0.9-2.9 0-6.9 0.3-12.5 0.9-3.9-5.8-11.1-15.2-21.6-28.3-10.5-13.1-16.9-19.5-19.1-19.5-0.6 0-17.8 9.8-51.7 29.6-1.1 0.9-1.6 1.8-1.6 2.9 0 6.9 7.1 26.1 21.1 57.5-5 6.9-9.2 14.2-12.5 21.6-41.3 4.2-62.1 8.5-62.1 12.8v58.4c0 4.4 20.8 8.8 62.1 12.8 3.6 8 7.8 15.2 12.5 21.6-14.2 31.4-21.1 50.6-21.1 57.5 0 1.1 0.6 2.1 1.6 2.9 1.1 0.6 5.9 3.3 14.5 8.3s16.8 9.7 24.6 14.2c7.8 4.4 12 6.7 12.5 6.7 2.2 0 8.6-6.5 19.1-19.3s17.8-22.3 21.6-28.1c5.6 0.6 9.7 0.9 12.5 0.9 2.9 0 6.9-0.3 12.5-0.9 14.2 19.7 26.9 35.3 38.3 46.7l2.5 0.9c1.1 0 18.3-9.7 51.7-29.2 1.1-0.9 1.6-1.8 1.6-2.9 0-6.9-7.1-26.1-21.1-57.5 4.7-6.4 8.9-13.6 12.5-21.6 41.3-4.2 62.1-8.6 62.1-13z m0-426.6v-58.4c0-4.4-20.8-8.8-62.1-12.8-3.3-7.5-7.5-14.7-12.5-21.6 14.2-31.4 21.1-50.6 21.1-57.5 0-1.1-0.6-2.1-1.6-2.9-34-19.7-51-29.6-51.7-29.6-2.2 0-8.6 6.6-19.1 19.5-10.5 13-17.8 22.5-21.6 28.3-5.6-0.6-9.7-0.9-12.5-0.9-2.9 0-6.9 0.3-12.5 0.9-3.9-5.8-11.1-15.2-21.6-28.3-10.5-13-16.9-19.5-19.1-19.5-0.6 0-17.8 9.9-51.7 29.6-1.1 0.9-1.6 1.8-1.6 2.9 0 6.9 7.1 26.1 21.1 57.5-5 6.9-9.2 14.2-12.5 21.6-41.3 4.2-62.1 8.5-62.1 12.8V200c0 4.4 20.8 8.8 62.1 12.8 3.6 8 7.8 15.2 12.5 21.6-14.2 31.4-21.1 50.6-21.1 57.5 0 1.1 0.6 2.1 1.6 2.9 1.1 0.6 5.9 3.3 14.5 8.3s16.8 9.7 24.6 14.2c7.8 4.4 12 6.7 12.5 6.7 2.2 0 8.6-6.5 19.1-19.3s17.8-22.3 21.6-28.1c5.6 0.6 9.7 0.9 12.5 0.9 2.9 0 6.9-0.3 12.5-0.9 14.2 19.7 26.9 35.3 38.3 46.7l2.5 0.9c1.1 0 18.3-9.7 51.7-29.2 1.1-0.9 1.6-1.8 1.6-2.9 0-6.9-7.1-26.1-21.1-57.5 4.7-6.4 8.9-13.6 12.5-21.6 41.3-4.2 62.1-8.5 62.1-13zM805.3 597.5c0 14.4-5.3 26.9-15.8 37.5-10.5 10.5-23.1 15.8-37.5 15.8s-26.9-5.3-37.5-15.8c-10.5-10.6-15.8-23.1-15.8-37.5 0-14.7 5.2-27.3 15.6-37.6 10.4-10.4 23-15.6 37.6-15.6 14.6 0 27.3 5.2 37.6 15.6 10.4 10.2 15.8 22.9 15.8 37.6z m0-426.7c0 14.4-5.3 26.9-15.8 37.5-10.5 10.5-23.1 15.8-37.5 15.8s-26.9-5.3-37.5-15.8c-10.5-10.5-15.8-23.1-15.8-37.5 0-14.7 5.2-27.3 15.6-37.6 10.4-10.3 23-15.6 37.6-15.6 14.6 0 27.3 5.2 37.6 15.6 10.4 10.3 15.8 23 15.8 37.6z"  horiz-adv-x="1024" />

    
    <glyph glyph-name="maplist" unicode="&#58936;" d="M876.39453125 462.31054688C848.62109375 589.75195313 766.8828125 687.66210938 640.23242188 745.40625c-7.3828125 3.33984375-15.38085938 3.60351563-22.50000001 0.61523438-14.0625-5.80078125-19.77539063-21.26953125-24.87304687-34.8046875-1.49414063-3.95507813-3.8671875-10.37109375-5.44921875-13.0078125-15.99609375-10.546875-23.203125-32.60742188-16.78710938-52.64648438 3.8671875-12.04101563 12.21679688-21.00585938 23.02734375-25.83984375-0.26367188-9.40429688 1.0546875-21.26953125 5.18554688-36.38671875 4.39453125-15.99609375 11.953125-35.5078125 30.5859375-44.73632813 21.53320313-10.63476563 48.8671875-2.37304688 72.86132813 7.11914063 4.74609375 1.66992188 8.17382813 2.37304688 10.37109374 2.54882812v-0.52734375c-1.66992188-12.56835938-5.88867188-20.390625-10.81054687-29.44335937-13.27148438-24.78515625-21.26953125-46.40625-2.54882813-99.75585938 10.45898438-30.05859375 29.1796875-48.95507813 45.703125-65.65429687 12.04101563-12.12890625 22.41210938-22.58789063 28.30078125-35.77148438 10.45898438-25.48828125 42.5390625-42.62695313 70.75195313-57.74414062l5.36132813-2.90039063c2.90039063-1.58203125 6.06445313-2.37304688 9.31640624-2.37304687 2.8125 0 5.71289063 0.61523438 8.34960938 1.84570313 5.625 2.63671875 9.66796875 7.82226563 10.8984375 13.88671874l0.08789063 0.61523438c4.83398438 22.1484375 18.19335938 100.81054688-1.66992188 191.86523438z m-32.08007813-158.11523438c-15.55664063 8.96484375-31.11328125 19.24804688-34.62890625 28.03710938-0.08789063 0.26367188-0.17578125 0.43945313-0.26367187 0.70312499-8.7890625 19.77539063-22.8515625 34.01367188-36.38671875 47.63671875-14.94140625 15.02929688-29.00390625 29.26757813-36.5625 50.9765625v0.08789063c-14.50195313 41.1328125-8.70117188 51.94335938 0.08789063 68.29101563 5.625 10.45898438 12.56835938 23.37890625 15.20507812 43.33007812 0 0.26367188 0.08789063 0.52734375 0.08789063 0.79101562 1.84570313 19.86328125-6.328125 30.5859375-13.44726563 36.03515625-5.09765625 3.95507813-12.83203125 7.55859375-24.08203125 7.55859375-7.03125 0-15.46875-1.40625-25.40039063-5.00976562-0.17578125-0.08789063-0.3515625-0.17578125-0.61523437-0.26367188-28.21289063-11.25-37.96875-10.1953125-41.30859375-8.52539062-2.4609375 1.23046875-6.24023438 5.71289063-10.28320313 20.12695312-5.53710938 19.95117188-3.60351563 28.38867188-3.07617187 30.234375 4.21875 5.80078125 5.00976563 13.44726563 1.7578125 20.0390625-3.60351563 7.47070313-11.6015625 11.86523438-19.86328125 10.8984375-6.24023438-0.703125-7.03125 1.14257813-7.3828125 1.93359375-1.40625 3.07617188-0.26367188 7.64648438 0.79101563 8.52539063l1.31835937 0.79101562c10.1953125 6.76757813 14.85351563 19.24804688 19.24804688 31.20117188 0.87890625 2.28515625 2.02148438 5.36132813 3.16406249 8.17382812C858.9921875 597.22265625 855.4765625 386.63671875 844.31445313 304.1953125zM598.8359375 309.20507812000005c-10.72265625 9.22851563-18.28125 16.96289063-24.9609375 23.81835938-21.70898438 22.32421875-35.15625 34.01367188-81.82617188 34.01367188-29.79492188 0-62.9296875-3.1640625-82.52929687-26.63085938-15.8203125-18.984375-19.77539063-46.40625-12.39257813-86.39648438 8.7890625-47.8125 28.38867188-61.69921875 41.39648438-70.83984374 8.7890625-6.24023438 10.63476563-7.55859375 9.4921875-24.34570313-3.77929688-52.3828125 6.41601563-73.56445313 18.19335938-92.37304687 0.96679688-1.58203125 1.93359375-3.07617188 2.8125-4.5703125 8.26171875-14.4140625 24.69726563-37.44140625 46.0546875-37.44140625 1.66992188 0 3.42773438 0.17578125 5.09765625 0.43945312 24.78515625 4.30664063 30.234375 35.15625 32.08007812 45.26367188 10.10742188 56.6015625 28.65234375 86.30859375 47.19726563 109.86328125 16.5234375 21.09375 60.38085938 76.90429688-0.61523438 129.19921874z m-30.14648438-104.94140624C548.03515625 177.984375 525.359375 142.30078125 513.7578125 77.0859375c-0.61523438-3.515625-1.31835938-6.328125-1.93359375-8.52539063-2.72460938 3.1640625-5.88867188 7.55859375-8.87695313 12.74414063-1.0546875 1.93359375-2.28515625 3.8671875-3.51562499 5.88867188-7.29492188 11.68945313-15.46875 24.87304688-12.30468751 68.90624999 2.54882813 35.859375-10.1953125 47.98828125-25.83984374 59.0625-10.10742188 7.11914063-19.59960938 13.88671875-25.48828126 46.0546875-4.921875 26.89453125-3.60351563 45.17578125 3.95507813 54.22851563 7.20703125 8.70117188 23.37890625 12.56835938 52.3828125 12.56835937 32.25585938 0 36.38671875-4.21875 53.70117188-22.1484375 6.85546875-7.11914063 15.46875-15.90820313 27.50976562-26.27929687 24.609375-21.18164063 23.46679688-39.46289063-4.65820312-75.32226563zM331.38476562 407.5546875c0.3515625 0.43945313 1.40625 1.31835938 3.33984376 2.37304688l0.79101562 0.43945312c9.75585938 5.18554688 24.16992188 12.91992188 30.32226563 13.7109375 0.52734375-0.96679688 1.23046875-2.72460938 1.93359375-5.71289063 5.18554688-20.56640625 20.65429688-33.83789063 40.4296875-34.62890624 23.5546875-0.87890625 47.72460938 16.69921875 55.81054687 40.95703125 4.48242188 13.44726563 7.91015625 14.23828125 24.16992188 17.75390625 8.70117188 1.93359375 19.51171875 4.30664063 31.64062499 9.58007812 29.97070313 13.09570313 61.43554688 30.5859375 54.49218751 71.98242188l-0.43945313 2.81249999c-3.95507813 24.08203125-9.84375 60.46875-73.65234375 60.46875-27.68554688 0-42.5390625-12.04101563-51.50390625-19.24804687-1.0546875-0.79101563-2.28515625-1.84570313-3.33984375-2.63671875-1.93359375 1.23046875-5.80078125 3.95507813-12.12890625 10.28320312-1.93359375 1.93359375-3.515625 3.60351563-4.83398438 5.09765625 1.93359375 0.43945313 3.95507813 0.87890625 5.53710938 1.23046875 8.17382813 1.7578125 16.61132813 3.60351563 24.08203125 7.29492188 20.91796875 10.45898438 41.92382813 45.17578125 36.65039063 70.83984375-3.42773438 16.875-16.69921875 27.59765625-35.41992188 28.65234375-21.35742188 1.23046875-32.25585938-4.04296875-39.46289063-7.47070313-4.5703125-2.19726563-4.921875-2.37304688-12.3046875 0.26367188-29.97070313 10.72265625-49.39453125-17.84179688-61.08398437-34.98046875-1.66992188-2.37304688-3.69140625-5.36132813-5.625-7.99804688-1.31835938 1.58203125-2.63671875 3.25195313-3.77929688 4.65820313-13.79882813 17.2265625-34.71679688 43.2421875-65.30273437 42.36328125-6.94335938-0.17578125-23.29101563-0.703125-62.75390625-54.75585938-21.35742188-29.1796875-41.57226563-63.72070313-52.734375-90.08789062-1.23046875-2.98828125-1.7578125-6.15234375-1.49414063-9.31640625 5.80078125-65.65429688 36.82617188-103.79882813 46.31835938-113.99414063 7.55859375-13.7109375 38.05664063-56.77734375 142.64648438-106.34765624 2.109375-0.96679688 4.30664063-1.58203125 6.59179687-1.84570313 0.96679688-0.08789063 1.93359375-0.08789063 2.90039062-0.08789062 8.96484375 0 20.0390625 3.69140625 25.04882813 14.50195312 8.61328125 18.45703125-8.96484375 36.03515625-16.43554688 43.50585938-27.24609375 27.50976563-30.49804688 37.265625-30.41015625 40.34179687z m-15.02929687 36.9140625c-17.13867188-9.140625-22.32421875-21.796875-23.64257812-30.84960938-1.7578125-11.77734375 2.109375-23.5546875 8.87695312-34.98046874-51.59179688 32.34375-64.95117188 55.72265625-66.35742188 58.27148437-0.96679688 2.72460938-2.37304688 4.39453125-4.48242187 6.50390625-1.23046875 1.23046875-29.97070313 29.79492188-36.47460938 87.01171875 21.4453125 47.98828125 65.56640625 107.13867188 80.68359376 116.27929688 10.72265625-1.49414063 23.203125-17.05078125 31.640625-27.59765626 8.26171875-10.28320313 14.85351563-18.54492188 23.99414062-22.06054687 22.76367188-9.4921875 38.05664063 12.91992188 48.25195313 27.7734375 4.21875 6.24023438 11.953125 17.578125 16.25976562 19.86328125 20.7421875-7.20703125 31.640625-3.33984375 41.92382813 1.66992187 4.83398438 2.37304688 8.70117188 4.21875 19.51171875 3.69140625-0.87890625-7.47070313-9.140625-22.1484375-15.8203125-25.48828125-2.98828125-1.49414063-9.31640625-2.8125-14.85351563-4.04296875-14.67773438-3.1640625-34.8046875-7.55859375-40.25390625-26.015625-5.2734375-17.84179688 7.99804688-34.1015625 20.12695313-46.23046875 29.97070313-29.97070313 48.1640625-26.27929688 67.67578125-10.45898437 7.29492188 5.88867188 13.0078125 10.546875 26.89453125 10.546875 30.49804688 0 31.46484375-5.88867188 34.98046875-27.68554688l0.52734375-2.98828125c1.40625-8.26171875 2.4609375-14.85351563-31.55273438-29.70703125-8.61328125-3.77929688-16.61132813-5.53710938-24.34570312-7.20703125-18.45703125-4.04296875-41.39648438-9.05273438-52.91015625-43.59375-3.07617188-9.31640625-11.86523438-14.23828125-16.96289063-14.23828125h-0.26367187c-1.23046875 0.08789063-2.72460938 0.08789063-3.95507813 5.00976563-4.04296875 16.25976563-11.953125 27.15820313-23.5546875 32.25585938-19.95117188 8.87695313-40.86914063-2.28515625-65.12695312-15.29296875l-0.79101563-0.43945313zM512 834C263.88476562 834 62 632.11523438 62 384s201.88476563-450 450-450 450 201.88476563 450 450S760.11523438 834 512 834z m0-860.88867188C285.41796875-26.888671879999947 101.11132812 157.41796875 101.11132812 384S285.41796875 794.88867188 512 794.88867188 922.88867188 610.58203125 922.88867188 384 738.58203125-26.888671879999947 512-26.888671879999947z"  horiz-adv-x="1024" />

    
    <glyph glyph-name="sun" unicode="&#58884;" d="M0 384V768h992v-768H0V384z m960 0V736H32v-704h928V384zM96 384V672h800v-576H96v288z m585.6 214.4c-92.8 6.4-249.6 6.4-352 0s-25.6-9.6 166.4-9.6c195.2 0 278.4 3.2 185.6 9.6z"  horiz-adv-x="1024" />

    
    <glyph glyph-name="port" unicode="&#58885;" d="M0 384V768h992v-768H0V384z m960 0V736H32v-704h928V384zM96 320c0 201.6 6.4 224 64 224 35.2 0 64 12.8 64 32 0 16 22.4 32 48 32s48 12.8 48 32c0 16 80 32 176 32s176-16 176-32c0-19.2 22.4-32 48-32s48-16 48-32c0-19.2 28.8-32 64-32 57.6 0 64-22.4 64-224v-224H96v224z"  horiz-adv-x="1024" />

    
    <glyph glyph-name="wifi" unicode="&#59239;" d="M753.142857 260C688.914286 315.885714 605.028571 349.714286 513.142857 349.714286s-175.771429-33.828571-240.114286-89.828572a9.257143 9.257143 0 0 1-0.914285-12.8l41.142857-49.028571c3.314286-3.885714 9.142857-4.342857 13.028571-1.028572C376.114286 240.914286 441.485714 267.428571 513.142857 267.428571s137.028571-26.514286 186.857143-70.285714c3.885714-3.314286 9.714286-2.857143 13.028571 1.028572l41.142858 49.028571c3.2 3.771429 2.742857 9.485714-1.028572 12.8z m134.171429 160.114286C785.942857 504.571429 655.542857 555.428571 513.142857 555.428571s-272.8-50.857143-374.285714-135.314285a9.2 9.2 0 0 1-1.142857-12.914286l41.142857-49.028571c3.2-3.885714 9.028571-4.342857 12.8-1.142858C278.857143 429.485714 390.971429 473.142857 513.142857 473.142857s234.285714-43.657143 321.371429-116.114286c3.885714-3.2 9.6-2.742857 12.8 1.142858l41.142857 49.028571c3.2 3.885714 2.742857 9.714286-1.142857 12.914286z m133.371428 158.857143C881.942857 692.8 704.342857 761.142857 510.857143 761.142857c-192.228571 0-368.685714-67.428571-507.085714-179.885714a9.142857 9.142857 0 0 1-1.257143-13.028572l41.142857-49.028571c3.2-3.771429 8.914286-4.342857 12.685714-1.257143C180.571429 618.628571 338.628571 678.857143 510.857143 678.857143c173.485714 0 332.571429-61.142857 457.142857-163.085714 3.885714-3.2 9.6-2.628571 12.8 1.257142l41.142857 49.028572c3.314286 3.885714 2.742857 9.714286-1.257143 12.914286zM438.857143 80a73.142857 73.142857 0 1 1 146.285714 0 73.142857 73.142857 0 1 1-146.285714 0z"  horiz-adv-x="1024" />

    
    <glyph glyph-name="zd" unicode="&#59032;" d="M947.2 0l-178.688 178.688c25.088 30.208 45.568 63.488 60.416 99.328 20.48 49.152 31.232 100.864 31.232 154.624s-10.24 105.472-31.232 154.624c-19.968 47.104-48.64 89.6-84.992 125.952-36.352 36.352-78.848 65.024-125.952 84.992-49.152 20.48-100.864 31.232-154.624 31.232s-105.472-10.24-154.624-31.232c-47.104-19.968-89.6-48.64-125.952-84.992S117.76 634.3679999999999 97.792 587.264C76.8 538.1120000000001 66.56 485.888 66.56 432.64s10.24-105.472 31.232-154.624c19.968-47.104 48.64-89.6 84.992-125.952 36.352-36.352 78.848-65.024 125.952-84.992 49.152-20.48 100.864-31.232 154.624-31.232s105.472 10.24 154.624 31.232c36.352 15.36 69.632 35.84 99.84 60.928l178.688-178.688c7.168-7.168 16.384-10.24 25.6-10.24 9.216 0 18.432 3.584 25.6 10.24 13.312 13.824 13.312 36.864-0.512 50.688z m-483.84 107.52c-179.2 0-325.12 145.92-325.12 325.12S284.16 757.76 463.36 757.76 788.48 611.8399999999999 788.48 432.64 642.56 107.51999999999998 463.36 107.51999999999998zM684.032 541.696c-12.288 10.752-31.232 9.728-42.496-2.56l-125.44-142.848-90.112 139.264c-5.12 7.68-13.312 12.8-22.528 13.312-9.216 0.512-18.432-2.56-24.576-9.728l-157.184-172.032c-11.264-12.288-10.24-31.232 2.048-42.496 5.632-5.12 12.8-7.68 19.968-7.68 8.192 0 16.384 3.072 22.016 9.728l131.072 143.872 91.136-139.776c5.12-7.68 13.824-12.8 23.04-13.312 9.216-0.512 18.432 3.072 24.576 10.24l151.04 172.544c11.264 11.776 9.728 30.208-2.56 41.472z"  horiz-adv-x="1024" />

    
    <glyph glyph-name="weihu" unicode="&#59039;" d="M221.04677938 150.62104031a30.3450225 30.3450225 0 1 0-30.3450225 30.34502157 30.41275688 30.41275688 0 0 0 30.3450225-30.34502157zM739.41833094 735.30459281a21.53954719 21.53954719 0 1 0-21.53954719 21.53954719 21.53954719 21.53954719 0 0 0 21.53954719-21.53954719zM438.40654813 811.97996156a35.35737 35.35737 0 1 0-35.35737001 35.28963563A35.35737 35.35737 0 0 0 438.40654813 811.97996156zM588.98017344 543.34523344a13.54688531 13.54688531 0 1 0-13.54688438 13.54688531 13.54688531 13.54688531 0 0 0 13.54688438-13.54688531zM491.71353969 20.774147810000045a16.93360594 16.93360594 0 1 0-16.86587156 16.93360594 16.86587156 16.86587156 0 0 0 16.86587156-16.93360594zM869.46842562 232.57969405999995a26.41642594 26.41642594 0 1 0-26.416425 26.416425 26.48416031 26.48416031 0 0 0 26.416425-26.416425zM349.55252938 45.18563438000001l-31.90291407 31.89614062 282.48641813 282.48641813 31.90291406-31.90291407zM910.92189406 656.25852l17.81415375-17.74641938a56.7614475 56.7614475 0 0 0 0-80.26529343L667.21343375 296.72419405999995 569.20172187 394.80364031l261.45487875 261.45487969a56.69371313 56.69371313 0 0 0 80.26529344 0zM667.21343375 273.28808344000004L545.76561031 394.80364031l273.172935 273.24066938a73.42411594 73.42411594 0 0 0 103.70140407 0l17.81415375-17.81415375a73.42411594 73.42411594 0 0 0 0-103.70140407z m-74.50786688 121.51555687l74.50786688-74.50786687 249.80455781 249.73682343a40.16651344 40.16651344 0 0 1 0 56.76144844L899.00063469 644.54046469a40.09877906 40.09877906 0 0 1-56.7614475 0zM528.34431688 412.25880187l23.42256375 23.42256376 156.33105187-156.33105188-23.42256375-23.42256375zM310.998095 92.84357624999996l54.3907425-54.45847781-102.54991875-89.68037813-41.79213937 41.79214031 89.95131562 102.34671563zM619.52839906 292.72786312000005l-22.96197 23.91025126 11.71805532 11.31164906-8.39906813 8.39906906-12.86954062-12.3954-22.96197 23.91025219 36.30565124 34.95096281 55.33902469-55.33902469-36.1701825-34.74775968zM262.09384062-73.98631219000004l-63.73809375 63.73809375 111.89726907 127.27298344 11.92125937-11.92125844 92.59295813 92.59295813 23.43611062-23.43611063-116.02906875-116.09680406-10.43110125 10.43110219-68.00536312-77.35271344 19.84618687-19.84618594 77.55591656 67.80215906-10.49883656 10.56657 116.09680406 116.09680407 23.43611063-23.43611157-92.6606925-92.6606925 12.19219594-12.19219687-127.61165532-111.55859719zM386.45424406 629.3679534400001a181.66372688 181.66372688 0 0 1-186.81154312 43.48550062l111.15219094-111.15219093-24.04572094-89.81584688-89.81584688-24.04572094L85.78113312 559.19508938a181.66372688 181.66372688 0 0 1 239.10251907-227.24899501l374.43589875-372.87800718a72.0694275 72.0694275 0 0 1 101.6016375 101.60163656l-374.43589969 372.53933531a181.93466437 181.93466437 0 0 1-40.03104469 196.15889438zM749.98490094-78.79545656000005a88.66436156 88.66436156 0 0 0-62.72207719 25.94228531l-366.84964406 365.76589219a198.25866094 198.25866094 0 0 0-250.61737031 251.70112219l8.53453687 25.332675 123.27665344-123.2766525 71.32434844 19.10110781 19.10110781 71.32434844-123.2766525 123.27665343L194.56261906 688.5678403100001a198.25866094 198.25866094 0 0 0 251.70112219-250.61737125l366.9173775-365.76589312a88.66436156 88.66436156 0 0 0-63.19621781-150.9800325zM328.87998313 351.18267094l382.08988875-380.59973156a56.96465156 56.96465156 0 0 1 78.57193312 0 55.54222781 55.54222781 0 0 1 0 78.50419781L407.45191531 429.68686969l3.99633094 10.16016375a165.13652719 165.13652719 0 0 1-179.36075625 223.99774218L329.28638937 566.64587625l-28.99033312-108.37507969-108.37507969-29.05806843L94.72207719 526.54709625A165.06879281 165.06879281 0 0 1 318.78755375 347.18634z"  horiz-adv-x="1024" />

    


  </font>
</defs>
</svg>
